<?xml version="1.0" encoding="UTF-8" standalone="no"?>
<svg
   xmlns:dc="http://purl.org/dc/elements/1.1/"
   xmlns:cc="http://creativecommons.org/ns#"
   xmlns:rdf="http://www.w3.org/1999/02/22-rdf-syntax-ns#"
   xmlns:svg="http://www.w3.org/2000/svg"
   xmlns="http://www.w3.org/2000/svg"
   xmlns:xlink="http://www.w3.org/1999/xlink"
   xmlns:sodipodi="http://sodipodi.sourceforge.net/DTD/sodipodi-0.dtd"
   xmlns:inkscape="http://www.inkscape.org/namespaces/inkscape"
   inkscape:version="1.0 (4035a4f, 2020-05-01)"
   sodipodi:docname="minikube_logo_with_name.svg"
   id="svg114"
   version="1.1"
   viewBox="0 0 612 165"
   height="165px"
   width="612px">
  <metadata
     id="metadata118">
    <rdf:RDF>
      <cc:Work
         rdf:about="">
        <dc:format>image/svg+xml</dc:format>
        <dc:type
           rdf:resource="http://purl.org/dc/dcmitype/StillImage" />
      </cc:Work>
    </rdf:RDF>
  </metadata>
  <sodipodi:namedview
     inkscape:current-layer="Page-1"
     inkscape:window-maximized="0"
     inkscape:window-y="23"
     inkscape:window-x="0"
     inkscape:cy="39.7688"
     inkscape:cx="146.71867"
     inkscape:zoom="1.1405229"
     showgrid="false"
     id="namedview116"
     inkscape:window-height="764"
     inkscape:window-width="1582"
     inkscape:pageshadow="2"
     inkscape:pageopacity="0"
     guidetolerance="10"
     gridtolerance="10"
     objecttolerance="10"
     borderopacity="1"
     bordercolor="#666666"
     pagecolor="#ffffff" />
  <!-- Generator: Sketch 39.1 (31720) - http://www.bohemiancoding.com/sketch -->
  <title
     id="title83">logo</title>
  <desc
     id="desc85">Created with Sketch.</desc>
  <defs
     id="defs89">
    <polygon
       points="169.050447 0 0 0 0 164.6156 169.050447 164.6156"
       id="path-1" />
    <polygon
       points="0 164.616 611.093 164.616 611.093 0 0 0"
       id="path-3" />
    <filter
       id="filter601"
       inkscape:label="Duochrome"
       style="color-interpolation-filters:sRGB;">
      <feColorMatrix
         id="feColorMatrix581"
         result="colormatrix1"
         type="luminanceToAlpha" />
      <feFlood
         id="feFlood583"
         result="flood1"
         flood-color="rgb(16,47,49)"
         flood-opacity="0.596078" />
      <feComposite
         id="feComposite585"
         result="composite1"
         operator="out"
         in2="colormatrix1" />
      <feFlood
         id="feFlood587"
         result="flood2"
         flood-color="rgb(171,175,176)"
         flood-opacity="1" />
      <feComposite
         id="feComposite589"
         operator="in"
         result="composite2"
         in2="colormatrix1" />
      <feComposite
         id="feComposite591"
         result="composite3"
         operator="arithmetic"
         k3="1"
         k2="1"
         in2="composite1"
         in="composite2" />
      <feColorMatrix
         id="feColorMatrix593"
         result="colormatrix2"
         values="2 -1 0 0 0 0 2 -1 0 0 -1 0 2 0 0 0 0 0 1 0 "
         type="matrix"
         in="composite3" />
      <feComposite
         id="feComposite595"
         result="composite4"
         k2="1.53892"
         operator="arithmetic"
         in2="composite3"
         in="colormatrix2" />
      <feBlend
         id="feBlend597"
         result="blend"
         mode="normal"
         in2="composite3"
         in="composite4" />
      <feComposite
         id="feComposite599"
         operator="in"
         in2="SourceGraphic" />
    </filter>
  </defs>
  <g
     fill-rule="evenodd"
     fill="none"
     stroke-width="1"
     stroke="none"
     id="Page-1">
    <g
       transform="matrix(0.7780717,0,0,0.7780717,49.396775,16.512805)"
       style="filter:url(#filter601)"
       id="logo">
      <g
         id="outline">
        <mask
           fill="#ffffff"
           id="mask-2">
          <use
             height="100%"
             width="100%"
             y="0"
             x="0"
             id="use91"
             xlink:href="#path-1" />
        </mask>
        <g
           id="Clip-2" />
        <path
           mask="url(#mask-2)"
           fill="#326de6"
           id="Fill-1"
           d="m 84.6891,-4e-4 v 0 c -2.295,0 -4.591,0.547 -6.777,1.53 l -55.309,26.453 c -4.373,2.076 -7.433,5.902 -8.526,10.602 l -13.664,59.354 c -1.093,4.7 0,9.51 3.061,13.336 l 38.257,47.548 c 2.952,3.717 7.433,5.793 12.133,5.793 h 61.322 c 4.7,0 9.181,-2.076 12.133,-5.793 l 38.257,-47.548 c 3.061,-3.717 4.154,-8.636 3.061,-13.336 l -13.664,-59.354 c -1.093,-4.7 -4.153,-8.526 -8.526,-10.602 l -55.09,-26.453 c -2.077,-0.983 -4.373,-1.53 -6.668,-1.53 m 0,5.137 c 1.53,0 3.061,0.328 4.482,0.984 l 55.309,26.343 c 2.842,1.421 5.028,4.045 5.684,7.105 l 13.663,59.354 c 0.765,3.17 0,6.449 -2.077,8.963 l -38.257,47.549 c -1.968,2.514 -5.028,3.935 -8.198,3.935 h -61.321 c -3.17,0 -6.231,-1.421 -8.198,-3.935 l -38.258,-47.549 c -1.967,-2.514 -2.732,-5.793 -2.077,-8.963 l 13.664,-59.354 c 0.765,-3.17 2.842,-5.793 5.684,-7.105 l 55.309,-26.452 c 1.421,-0.547 3.061,-0.875 4.591,-0.875" />
      </g>
      <path
         fill="#1fbfcf"
         id="Fill-4"
         d="m 52.6875,145.4897 c 1.961,2.462 4.902,3.821 7.972,3.821 l 48.123,-0.085 c 3.071,0 5.981,-1.444 7.942,-3.821 l 29.336,-36.935 c 0.847,-1.153 0.753,-3.414 0.753,-5.319 v -51.577 l -63.03,36.291 v -0.001 l -62.97,-36.256 v 51.543 c 0,1.936 0.684,3.824 1.942,5.404 z" />
      <polygon
         points="83.7245,15.3055 20.8135,51.6055 83.7835,87.8645 146.8135,51.5745 "
         fill="#c9e9ec"
         id="Fill-6" />
      <path
         fill="#326de6"
         id="Fill-8"
         d="m 98.8202,115.9015 c -1.807,1.15 -4.272,0.822 -5.751,-0.986 -0.493,-0.493 -0.657,-1.15 -0.821,-1.807 l -1.479,-26.783 c 11.337,1.315 21.689,6.408 29.576,14.295 z m -22.346,-3.451 c -0.165,2.301 -1.972,4.273 -4.437,4.273 -0.657,0 -1.478,-0.165 -1.971,-0.493 l -21.854,-15.61 c 6.737,-6.737 15.117,-11.337 24.483,-13.473 1.807,-0.329 3.45,-0.658 5.258,-0.986 z m 61.452,-11.008 1.643,-1.479 v -0.329 c 0,-0.821 0.164,-1.643 0.822,-2.464 1.971,-1.808 4.436,-3.287 7.393,-5.094 0.493,-0.329 0.986,-0.493 1.479,-0.822 0.986,-0.492 1.808,-0.985 2.794,-1.643 0.164,-0.164 0.492,-0.328 0.821,-0.657 0.164,-0.164 0.329,-0.164 0.329,-0.329 2.3,-1.971 2.793,-5.257 1.15,-7.393 -0.822,-1.151 -2.3,-1.808 -3.779,-1.808 -1.315,0 -2.465,0.493 -3.615,1.315 l -0.329,0.328 c -0.328,0.165 -0.493,0.493 -0.821,0.657 -0.822,0.822 -1.479,1.479 -2.136,2.301 -0.329,0.328 -0.657,0.821 -1.15,1.15 -2.301,2.465 -4.437,4.436 -6.573,5.915 -0.493,0.329 -0.986,0.493 -1.479,0.493 -0.328,0 -0.657,0 -0.986,-0.164 h -0.328 l -1.972,1.314 c -2.136,-2.3 -4.436,-4.272 -6.737,-6.244 -9.858,-7.722 -21.853,-12.487 -34.34,-13.637 l -0.165,-2.136 -0.328,-0.329 c -0.493,-0.493 -1.151,-0.986 -1.315,-2.136 -0.164,-2.629 0.164,-5.587 0.493,-8.873 v -0.164 c 0,-0.493 0.164,-1.15 0.329,-1.643 0.164,-0.986 0.328,-1.972 0.493,-3.122 v -0.986 -0.493 c 0,-2.957 -2.301,-5.422 -5.094,-5.422 -1.314,0 -2.629,0.657 -3.615,1.643 -0.986,0.986 -1.479,2.3 -1.479,3.779 v 0.329 0.986 c 0,1.15 0.165,2.136 0.493,3.121 0.165,0.493 0.165,0.986 0.329,1.644 v 0.164 c 0.329,3.286 0.821,6.244 0.493,8.873 -0.164,1.15 -0.822,1.643 -1.315,2.136 -0.164,0.164 -0.164,0.164 -0.328,0.328 l -0.165,2.136 c -2.957,0.329 -5.915,0.658 -8.872,1.315 -12.652,2.793 -23.825,9.201 -32.534,18.403 l -1.643,-1.151 h -0.329 c -0.328,0 -0.657,0.165 -0.985,0.165 -0.493,0 -0.986,-0.165 -1.479,-0.493 -2.136,-1.479 -4.272,-3.615 -6.573,-6.08 -0.328,-0.328 -0.657,-0.821 -1.15,-1.15 -0.657,-0.821 -1.314,-1.479 -2.136,-2.3 -0.164,-0.164 -0.493,-0.329 -0.821,-0.657 -0.165,-0.165 -0.329,-0.165 -0.329,-0.329 -0.986,-0.822 -2.3,-1.315 -3.615,-1.315 -1.479,0 -2.957,0.658 -3.779,1.808 -1.643,2.136 -1.15,5.422 1.15,7.394 0.165,0 0.165,0.164 0.329,0.164 0.328,0.164 0.493,0.493 0.821,0.657 0.986,0.658 1.808,1.151 2.794,1.644 0.493,0.164 0.986,0.492 1.478,0.821 2.958,1.808 5.423,3.286 7.394,5.094 0.822,0.821 0.822,1.643 0.822,2.464 v 0.329 l 1.643,1.479 c -0.329,0.493 -0.657,0.821 -0.821,1.314 -1.927,3.045 -3.563,6.22 -4.928,9.486 l 9.367,11.558 c 1.267,-4.473 3.122,-8.794 5.583,-12.828 l 19.553,17.417 c 1.808,1.478 1.972,4.272 0.493,6.079 -0.493,0.657 -1.15,1.15 -1.971,1.315 l -11.291,3.278 5.61,6.921 c 1.961,2.463 4.901,3.821 7.972,3.821 l 48.123,-0.085 c 3.07,0 5.98,-1.443 7.942,-3.821 l 5.267,-6.632 -11.537,-3.318 c -2.3,-0.657 -3.615,-2.958 -3.122,-5.258 0.164,-0.657 0.493,-1.314 0.986,-1.807 l 19.882,-17.91 c 2.42,3.987 4.345,8.469 5.671,13.336 l 9.554,-12.028 c -1.542,-3.599 -3.392,-7.055 -5.531,-10.345 z" />
      <path
         fill="#326de6"
         id="Fill-10"
         d="m 249.3714,95.8381 c 0,-4.607 -0.593,-7.872 -1.775,-9.792 -1.186,-1.92 -3.217,-2.88 -6.097,-2.88 -0.897,0 -1.824,0.048 -2.784,0.145 -0.96,0.095 -1.888,0.208 -2.783,0.336 v 38.975 h -14.305 v -48.767 c 1.215,-0.321 2.64,-0.657 4.272,-1.009 1.632,-0.351 3.36,-0.672 5.184,-0.96 1.824,-0.288 3.696,-0.511 5.616,-0.672 1.92,-0.159 3.807,-0.24 5.664,-0.24 3.648,0 6.608,0.466 8.88,1.392 2.272,0.929 4.143,2.033 5.616,3.312 2.047,-1.471 4.4,-2.623 7.056,-3.456 2.655,-0.831 5.103,-1.248 7.344,-1.248 4.032,0 7.344,0.561 9.936,1.68 2.592,1.121 4.656,2.705 6.193,4.752 1.535,2.049 2.591,4.481 3.168,7.296 0.575,2.818 0.863,5.952 0.863,9.408 v 28.512 h -14.304 v -26.784 c 0,-4.607 -0.593,-7.872 -1.776,-9.792 -1.185,-1.92 -3.216,-2.88 -6.096,-2.88 -0.767,0 -1.841,0.193 -3.216,0.576 -1.377,0.384 -2.512,0.865 -3.408,1.44 0.447,1.473 0.735,3.024 0.864,4.656 0.127,1.632 0.192,3.377 0.192,5.232 v 27.552 h -14.304 z" />
      <mask
         fill="#ffffff"
         id="mask-4">
        <use
           height="100%"
           width="100%"
           y="0"
           x="0"
           id="use101"
           xlink:href="#path-3" />
      </mask>
      <g
         id="Clip-13" />
      <path
         mask="url(#mask-4)"
         fill="#326de6"
         id="Fill-12"
         d="M 301.595,122.622 H 315.9 V 72.126 h -14.305 z m 15.648,-65.088 c 0,2.625 -0.849,4.689 -2.543,6.192 -1.697,1.505 -3.697,2.257 -6,2.257 -2.305,0 -4.306,-0.752 -6,-2.257 -1.697,-1.503 -2.544,-3.567 -2.544,-6.192 0,-2.624 0.847,-4.687 2.544,-6.192 1.694,-1.503 3.695,-2.256 6,-2.256 2.303,0 4.303,0.753 6,2.256 1.694,1.505 2.543,3.568 2.543,6.192 z" />
      <path
         mask="url(#mask-4)"
         fill="#326de6"
         id="Fill-14"
         d="m 326.554,73.8547 c 2.432,-0.704 5.568,-1.359 9.408,-1.969 3.84,-0.607 7.872,-0.912 12.096,-0.912 4.287,0 7.855,0.562 10.704,1.681 2.848,1.12 5.104,2.704 6.769,4.752 1.663,2.049 2.846,4.48 3.551,7.296 0.703,2.817 1.056,5.952 1.056,9.408 v 28.512 h -14.304 v -26.785 c 0,-4.607 -0.609,-7.872 -1.824,-9.792 -1.216,-1.92 -3.489,-2.879 -6.815,-2.879 -1.025,0 -2.113,0.047 -3.265,0.144 -1.151,0.096 -2.176,0.208 -3.071,0.336 v 38.976 h -14.305 z" />
      <path
         mask="url(#mask-4)"
         fill="#326de6"
         id="Fill-15"
         d="m 380.313,122.622 h 14.305 V 72.126 h -14.305 z m 15.648,-65.088 c 0,2.625 -0.849,4.689 -2.544,6.192 -1.696,1.505 -3.696,2.257 -6,2.257 -2.304,0 -4.305,-0.752 -6,-2.257 -1.696,-1.503 -2.544,-3.567 -2.544,-6.192 0,-2.624 0.848,-4.687 2.544,-6.192 1.695,-1.503 3.696,-2.256 6,-2.256 2.304,0 4.304,0.753 6,2.256 1.695,1.505 2.544,3.568 2.544,6.192 z" />
      <path
         mask="url(#mask-4)"
         fill="#326de6"
         id="Fill-16"
         d="m 419.5765,90.26 c 1.406,-1.527 2.86,-3.117 4.363,-4.771 1.501,-1.655 2.956,-3.293 4.364,-4.917 1.407,-1.623 2.733,-3.165 3.979,-4.628 1.246,-1.462 2.317,-2.735 3.213,-3.818 h 17.009 c -3.394,3.898 -6.705,7.617 -9.937,11.16 -3.232,3.545 -6.767,7.201 -10.607,10.968 1.92,1.732 3.902,3.8 5.952,6.203 2.047,2.405 4.031,4.888 5.951,7.453 1.921,2.565 3.68,5.128 5.28,7.693 1.6,2.564 2.944,4.904 4.033,7.019 h -16.448 c -1.023,-1.668 -2.188,-3.511 -3.498,-5.533 -1.309,-2.02 -2.698,-4.041 -4.169,-6.061 -1.469,-2.021 -3.017,-3.962 -4.646,-5.822 -1.629,-1.86 -3.243,-3.432 -4.839,-4.717 v 22.133 h -14.305 V 50.43 l 14.305,-2.304 z" />
      <path
         mask="url(#mask-4)"
         fill="#326de6"
         id="Fill-17"
         d="m 502.1351,120.8948 c -2.434,0.704 -5.568,1.36 -9.408,1.968 -3.84,0.607 -7.872,0.912 -12.096,0.912 -4.289,0 -7.857,-0.576 -10.704,-1.729 -2.849,-1.151 -5.105,-2.767 -6.769,-4.847 -1.665,-2.079 -2.848,-4.561 -3.551,-7.441 -0.705,-2.88 -1.056,-6.048 -1.056,-9.504 v -28.128 h 14.304 v 26.401 c 0,4.607 0.607,7.936 1.824,9.983 1.215,2.049 3.487,3.072 6.815,3.072 1.024,0 2.113,-0.047 3.265,-0.143 1.151,-0.097 2.175,-0.207 3.071,-0.336 v -38.977 h 14.305 z" />
      <path
         mask="url(#mask-4)"
         fill="#326de6"
         id="Fill-18"
         d="m 545.1429,96.9905 c 0,-9.216 -3.394,-13.824 -10.176,-13.824 -1.473,0 -2.928,0.192 -4.368,0.576 -1.44,0.384 -2.608,0.864 -3.504,1.439 v 26.017 c 0.703,0.129 1.599,0.24 2.688,0.336 1.088,0.096 2.271,0.144 3.551,0.144 3.904,0 6.848,-1.344 8.832,-4.032 1.984,-2.688 2.977,-6.24 2.977,-10.656 m 14.592,0.384 c 0,4.032 -0.593,7.679 -1.777,10.944 -1.184,3.264 -2.896,6.048 -5.135,8.352 -2.242,2.303 -4.992,4.08 -8.256,5.328 -3.264,1.248 -6.977,1.872 -11.136,1.872 -1.728,0 -3.537,-0.081 -5.425,-0.24 -1.887,-0.16 -3.743,-0.369 -5.567,-0.624 -1.824,-0.256 -3.568,-0.56 -5.233,-0.912 -1.665,-0.351 -3.136,-0.72 -4.416,-1.104 v -70.561 l 14.305,-2.303 v 25.152 c 1.599,-0.704 3.264,-1.248 4.991,-1.632 1.729,-0.385 3.584,-0.576 5.569,-0.576 3.584,0 6.752,0.624 9.504,1.872 2.751,1.248 5.054,3.024 6.912,5.328 1.855,2.304 3.263,5.073 4.223,8.304 0.96,3.232 1.441,6.832 1.441,10.8" />
      <path
         mask="url(#mask-4)"
         fill="#326de6"
         id="Fill-19"
         d="m 597.2689,92.2864 c -0.064,-1.215 -0.272,-2.4 -0.624,-3.552 -0.353,-1.152 -0.897,-2.176 -1.632,-3.072 -0.736,-0.896 -1.665,-1.632 -2.784,-2.208 -1.12,-0.576 -2.513,-0.864 -4.176,-0.864 -1.6,0 -2.976,0.273 -4.128,0.816 -1.152,0.544 -2.112,1.265 -2.88,2.16 -0.768,0.897 -1.36,1.937 -1.776,3.12 -0.417,1.185 -0.72,2.385 -0.912,3.6 z m -33.6,5.472 c 0,-4.479 0.687,-8.4 2.064,-11.76 1.376,-3.36 3.183,-6.159 5.424,-8.4 2.24,-2.24 4.815,-3.936 7.728,-5.088 2.911,-1.152 5.905,-1.728 8.976,-1.728 7.167,0 12.831,2.192 16.992,6.576 4.159,4.384 6.24,10.833 6.24,19.344 0,0.832 -0.033,1.744 -0.095,2.736 -0.065,0.993 -0.13,1.872 -0.193,2.64 h -32.448 c 0.319,2.944 1.695,5.28 4.128,7.008 2.431,1.728 5.695,2.592 9.792,2.592 2.624,0 5.199,-0.24 7.728,-0.72 2.528,-0.48 4.591,-1.071 6.192,-1.776 l 1.92,11.616 c -0.768,0.384 -1.792,0.768 -3.072,1.152 -1.281,0.384 -2.705,0.72 -4.272,1.008 -1.568,0.288 -3.249,0.528 -5.04,0.72 -1.792,0.192 -3.585,0.288 -5.376,0.288 -4.545,0 -8.496,-0.672 -11.856,-2.016 -3.36,-1.344 -6.144,-3.184 -8.352,-5.52 -2.208,-2.335 -3.84,-5.103 -4.896,-8.304 -1.056,-3.199 -1.584,-6.655 -1.584,-10.368 z" />
    </g>
  </g>
</svg>
