<svg width="107" height="30" viewBox="0 0 107 30" fill="none" xmlns="http://www.w3.org/2000/svg">
<rect x="0.5" y="0.5" width="106" height="29" rx="14.5" fill="#5469D4" fill-opacity="0.2"/>
<path d="M17.4659 9.81818H16.233V20H17.4659V9.81818ZM21.2022 15.4062C21.2022 14.0739 22.0275 13.3182 23.1511 13.3182C24.2399 13.3182 24.9011 14.0291 24.9011 15.2273V20H26.0744V15.1477C26.0744 13.1989 25.0353 12.2642 23.4892 12.2642C22.3358 12.2642 21.6199 12.7812 21.2619 13.5568H21.1625V12.3636H20.0289V20H21.2022V15.4062ZM32.815 20H34.0479V16.2812H36.2752C38.6467 16.2812 39.7156 14.8395 39.7156 13.0398C39.7156 11.2401 38.6467 9.81818 36.2553 9.81818H32.815V20ZM34.0479 15.1875V10.9119H36.2156C37.8711 10.9119 38.5025 11.8168 38.5025 13.0398C38.5025 14.2628 37.8711 15.1875 36.2354 15.1875H34.0479ZM41.7926 20H42.9659V15.1676C42.9659 14.1335 43.7812 13.3778 44.8949 13.3778C45.2081 13.3778 45.5312 13.4375 45.6108 13.4574V12.2642C45.4766 12.2543 45.1683 12.2443 44.9943 12.2443C44.0795 12.2443 43.2841 12.7614 43.0057 13.517H42.9261V12.3636H41.7926V20ZM50.1214 20.1591C52.1896 20.1591 53.5817 18.5881 53.5817 16.2216C53.5817 13.8352 52.1896 12.2642 50.1214 12.2642C48.0533 12.2642 46.6612 13.8352 46.6612 16.2216C46.6612 18.5881 48.0533 20.1591 50.1214 20.1591ZM50.1214 19.1051C48.5504 19.1051 47.8345 17.7528 47.8345 16.2216C47.8345 14.6903 48.5504 13.3182 50.1214 13.3182C51.6925 13.3182 52.4084 14.6903 52.4084 16.2216C52.4084 17.7528 51.6925 19.1051 50.1214 19.1051ZM58.7051 23.0227C60.5346 23.0227 62.0062 22.1875 62.0062 20.2188V12.3636H60.8727V13.5767H60.7534C60.4949 13.179 60.0176 12.2642 58.5261 12.2642C56.5971 12.2642 55.2647 13.7955 55.2647 16.142C55.2647 18.5284 56.6568 19.8807 58.5062 19.8807C59.9977 19.8807 60.475 19.0057 60.7335 18.5881H60.8329V20.1392C60.8329 21.4119 59.938 21.9886 58.7051 21.9886C57.318 21.9886 56.8308 21.2578 56.5176 20.8352L55.5829 21.4915C56.0602 22.2919 56.9998 23.0227 58.7051 23.0227ZM58.6653 18.8267C57.1937 18.8267 56.438 17.7131 56.438 16.1222C56.438 14.571 57.1738 13.3182 58.6653 13.3182C60.0971 13.3182 60.8528 14.4716 60.8528 16.1222C60.8528 17.8125 60.0772 18.8267 58.6653 18.8267ZM64.4039 20H65.5772V15.1676C65.5772 14.1335 66.3926 13.3778 67.5062 13.3778C67.8194 13.3778 68.1426 13.4375 68.2221 13.4574V12.2642C68.0879 12.2543 67.7797 12.2443 67.6056 12.2443C66.6909 12.2443 65.8954 12.7614 65.617 13.517H65.5375V12.3636H64.4039V20ZM72.8322 20.1591C74.3833 20.1591 75.5169 19.3835 75.8748 18.2301L74.7413 17.9119C74.443 18.7074 73.752 19.1051 72.8322 19.1051C71.4551 19.1051 70.5055 18.2152 70.4508 16.5795H75.9941V16.0824C75.9941 13.2386 74.3038 12.2642 72.7129 12.2642C70.6447 12.2642 69.2725 13.8949 69.2725 16.2415C69.2725 18.5881 70.6248 20.1591 72.8322 20.1591ZM70.4508 15.5653C70.5304 14.3771 71.3706 13.3182 72.7129 13.3182C73.9856 13.3182 74.801 14.2727 74.801 15.5653H70.4508ZM83.438 14.0739C83.0701 12.9901 82.2449 12.2642 80.7335 12.2642C79.1227 12.2642 77.9295 13.179 77.9295 14.4716C77.9295 15.5256 78.5559 16.2315 79.9579 16.5597L81.2306 16.858C82.0012 17.0369 82.3642 17.4048 82.3642 17.9318C82.3642 18.5881 81.6681 19.125 80.5744 19.125C79.6149 19.125 79.0133 18.7124 78.8045 17.892L77.6909 18.1705C77.9643 19.468 79.0332 20.1591 80.5943 20.1591C82.3691 20.1591 83.5772 19.1896 83.5772 17.8722C83.5772 16.8082 82.911 16.1371 81.5488 15.804L80.4153 15.5256C79.5105 15.3018 79.1028 14.9986 79.1028 14.4119C79.1028 13.7557 79.7988 13.2784 80.7335 13.2784C81.7576 13.2784 82.1802 13.8452 82.3841 14.3722L83.438 14.0739ZM91.0025 14.0739C90.6346 12.9901 89.8093 12.2642 88.2979 12.2642C86.6871 12.2642 85.494 13.179 85.494 14.4716C85.494 15.5256 86.1204 16.2315 87.5224 16.5597L88.7951 16.858C89.5657 17.0369 89.9286 17.4048 89.9286 17.9318C89.9286 18.5881 89.2326 19.125 88.1388 19.125C87.1793 19.125 86.5778 18.7124 86.369 17.892L85.2553 18.1705C85.5288 19.468 86.5977 20.1591 88.1587 20.1591C89.9336 20.1591 91.1417 19.1896 91.1417 17.8722C91.1417 16.8082 90.4755 16.1371 89.1133 15.804L87.9798 15.5256C87.0749 15.3018 86.6673 14.9986 86.6673 14.4119C86.6673 13.7557 87.3633 13.2784 88.2979 13.2784C89.3221 13.2784 89.7447 13.8452 89.9485 14.3722L91.0025 14.0739Z" fill="#5469D4"/>
<rect x="0.5" y="0.5" width="106" height="29" rx="14.5" stroke="#5469D4"/>
</svg>
