<svg width="86" height="30" viewBox="0 0 86 30" fill="none" xmlns="http://www.w3.org/2000/svg">
<rect x="0.5" y="0.5" width="85" height="29" rx="14.5" fill="#FFA600" fill-opacity="0.2"/>
<path d="M21.8011 12.3636H22.9943C22.9396 10.8274 21.5227 9.67898 19.554 9.67898C17.6051 9.67898 16.0739 10.8125 16.0739 12.5227C16.0739 13.8949 17.0682 14.7102 18.6591 15.1676L19.9119 15.5256C20.9858 15.8239 21.9403 16.2017 21.9403 17.2159C21.9403 18.3295 20.8665 19.0653 19.4545 19.0653C18.2415 19.0653 17.1676 18.5284 17.0682 17.375H15.7955C15.9148 19.0455 17.267 20.179 19.4545 20.179C21.8011 20.179 23.1335 18.8864 23.1335 17.2358C23.1335 15.3267 21.3239 14.7102 20.2699 14.4318L19.2358 14.1534C18.4801 13.9545 17.267 13.5568 17.267 12.4631C17.267 11.4886 18.1619 10.7727 19.5142 10.7727C20.7472 10.7727 21.6818 11.3594 21.8011 12.3636ZM25.2516 20H26.4249V17.1413L27.2452 16.3807L30.1039 20H31.5953L28.1301 15.625L31.3567 12.3636H29.905L26.5641 15.7642H26.4249V9.81818H25.2516V20ZM33.1168 20H34.2901V12.3636H33.1168V20ZM33.7134 11.0909C34.1708 11.0909 34.5487 10.733 34.5487 10.2955C34.5487 9.85795 34.1708 9.5 33.7134 9.5C33.256 9.5 32.8782 9.85795 32.8782 10.2955C32.8782 10.733 33.256 11.0909 33.7134 11.0909ZM36.6891 22.8636H37.8624V18.8267H37.9618C38.2203 19.2443 38.7175 20.1591 40.1891 20.1591C42.0982 20.1591 43.4306 18.6278 43.4306 16.2017C43.4306 13.7955 42.0982 12.2642 40.1692 12.2642C38.6777 12.2642 38.2203 13.179 37.9618 13.5767H37.8226V12.3636H36.6891V22.8636ZM37.8425 16.1818C37.8425 14.4716 38.5982 13.3182 40.03 13.3182C41.5215 13.3182 42.2573 14.571 42.2573 16.1818C42.2573 17.8125 41.5016 19.1051 40.03 19.1051C38.6181 19.1051 37.8425 17.9119 37.8425 16.1818ZM45.4703 22.8636H46.6436V18.8267H46.7431C47.0016 19.2443 47.4988 20.1591 48.9703 20.1591C50.8794 20.1591 52.2118 18.6278 52.2118 16.2017C52.2118 13.7955 50.8794 12.2642 48.9505 12.2642C47.459 12.2642 47.0016 13.179 46.7431 13.5767H46.6039V12.3636H45.4703V22.8636ZM46.6238 16.1818C46.6238 14.4716 47.3794 13.3182 48.8113 13.3182C50.3027 13.3182 51.0385 14.571 51.0385 16.1818C51.0385 17.8125 50.2828 19.1051 48.8113 19.1051C47.3993 19.1051 46.6238 17.9119 46.6238 16.1818ZM57.4533 20.1591C59.0044 20.1591 60.138 19.3835 60.4959 18.2301L59.3624 17.9119C59.0641 18.7074 58.373 19.1051 57.4533 19.1051C56.0762 19.1051 55.1266 18.2152 55.0719 16.5795H60.6152V16.0824C60.6152 13.2386 58.9249 12.2642 57.334 12.2642C55.2658 12.2642 53.8936 13.8949 53.8936 16.2415C53.8936 18.5881 55.2459 20.1591 57.4533 20.1591ZM55.0719 15.5653C55.1515 14.3771 55.9917 13.3182 57.334 13.3182C58.6067 13.3182 59.4221 14.2727 59.4221 15.5653H55.0719ZM65.5336 20.1591C67.0051 20.1591 67.5023 19.2443 67.7608 18.8267H67.9V20H69.0336V9.81818H67.8603V13.5767H67.7608C67.5023 13.179 67.0449 12.2642 65.5534 12.2642C63.6245 12.2642 62.2921 13.7955 62.2921 16.2017C62.2921 18.6278 63.6245 20.1591 65.5336 20.1591ZM65.6926 19.1051C64.2211 19.1051 63.4654 17.8125 63.4654 16.1818C63.4654 14.571 64.2012 13.3182 65.6926 13.3182C67.1245 13.3182 67.8801 14.4716 67.8801 16.1818C67.8801 17.9119 67.1046 19.1051 65.6926 19.1051Z" fill="#FFA600"/>
<rect x="0.5" y="0.5" width="85" height="29" rx="14.5" stroke="#FFA600"/>
</svg>
