<svg xmlns="http://www.w3.org/2000/svg" xmlns:xlink="http://www.w3.org/1999/xlink" width="23px" height="23px" viewBox="0 0 23 23" version="1.1">
<g id="surface1">
<path style=" stroke:none;fill-rule:nonzero;fill:rgb(87.843137%,11.764706%,35.294118%);fill-opacity:1;" d="M 4.632812 14.339844 C 4.632812 15.605469 3.601562 16.632812 2.324219 16.632812 C 1.050781 16.632812 0.015625 15.605469 0.015625 14.339844 C 0.015625 13.070312 1.050781 12.042969 2.324219 12.042969 L 4.632812 12.042969 Z M 5.785156 14.339844 C 5.785156 13.070312 6.820312 12.042969 8.09375 12.042969 C 9.371094 12.042969 10.402344 13.070312 10.402344 14.339844 L 10.402344 20.074219 C 10.402344 21.34375 9.371094 22.371094 8.09375 22.371094 C 6.820312 22.371094 5.785156 21.34375 5.785156 20.074219 Z M 5.785156 14.339844 "/>
<path style=" stroke:none;fill-rule:nonzero;fill:rgb(21.176471%,77.254902%,94.117647%);fill-opacity:1;" d="M 8.097656 5.125 C 6.820312 5.125 5.789062 4.097656 5.789062 2.832031 C 5.789062 1.5625 6.820312 0.535156 8.097656 0.535156 C 9.371094 0.535156 10.40625 1.5625 10.40625 2.832031 L 10.40625 5.125 Z M 8.097656 6.289062 C 9.371094 6.289062 10.40625 7.316406 10.40625 8.582031 C 10.40625 9.851562 9.371094 10.878906 8.097656 10.878906 L 2.308594 10.878906 C 1.03125 10.878906 0 9.851562 0 8.582031 C 0 7.316406 1.03125 6.289062 2.308594 6.289062 Z M 8.097656 6.289062 "/>
<path style=" stroke:none;fill-rule:nonzero;fill:rgb(18.039216%,71.372549%,49.019608%);fill-opacity:1;" d="M 17.34375 8.582031 C 17.34375 7.316406 18.378906 6.289062 19.652344 6.289062 C 20.929688 6.289062 21.960938 7.316406 21.960938 8.582031 C 21.960938 9.851562 20.929688 10.878906 19.652344 10.878906 L 17.34375 10.878906 Z M 16.191406 8.582031 C 16.191406 9.851562 15.160156 10.878906 13.882812 10.878906 C 12.605469 10.878906 11.574219 9.851562 11.574219 8.582031 L 11.574219 2.832031 C 11.574219 1.5625 12.605469 0.535156 13.882812 0.535156 C 15.160156 0.535156 16.191406 1.5625 16.191406 2.832031 Z M 16.191406 8.582031 "/>
<path style=" stroke:none;fill-rule:nonzero;fill:rgb(92.54902%,69.803922%,18.039216%);fill-opacity:1;" d="M 13.882812 17.777344 C 15.160156 17.777344 16.191406 18.804688 16.191406 20.074219 C 16.191406 21.34375 15.160156 22.371094 13.882812 22.371094 C 12.605469 22.371094 11.574219 21.34375 11.574219 20.074219 L 11.574219 17.777344 Z M 13.882812 16.632812 C 12.605469 16.632812 11.574219 15.605469 11.574219 14.339844 C 11.574219 13.070312 12.605469 12.042969 13.882812 12.042969 L 19.671875 12.042969 C 20.945312 12.042969 21.980469 13.070312 21.980469 14.339844 C 21.980469 15.605469 20.945312 16.632812 19.671875 16.632812 Z M 13.882812 16.632812 "/>
</g>
</svg>
