<svg width="71" height="30" viewBox="0 0 71 30" fill="none" xmlns="http://www.w3.org/2000/svg">
<rect x="0.5" y="0.5" width="70" height="29" rx="14.5" fill="#CA2C2C" fill-opacity="0.2"/>
<path d="M16.233 20H17.4659V15.446H21.8807V14.3523H17.4659V10.9119H22.3381V9.81818H16.233V20ZM26.7878 20.179C28.1202 20.179 28.8162 19.4631 29.0549 18.9659H29.1145V20H30.2878V14.9688C30.2878 12.5426 28.4384 12.2642 27.464 12.2642C26.3105 12.2642 24.998 12.6619 24.4015 14.054L25.5151 14.4517C25.7736 13.8949 26.3851 13.2983 27.5037 13.2983C28.5826 13.2983 29.1145 13.87 29.1145 14.8494V14.8892C29.1145 15.456 28.5378 15.4062 27.1458 15.5852C25.7289 15.7692 24.1827 16.0824 24.1827 17.8324C24.1827 19.3239 25.3361 20.179 26.7878 20.179ZM26.9668 19.125C26.0321 19.125 25.356 18.7074 25.356 17.892C25.356 16.9972 26.1713 16.7188 27.0861 16.5994C27.5833 16.5398 28.9157 16.4006 29.1145 16.1619V17.2358C29.1145 18.1903 28.3588 19.125 26.9668 19.125ZM32.6793 20H33.8526V12.3636H32.6793V20ZM33.2759 11.0909C33.7333 11.0909 34.1112 10.733 34.1112 10.2955C34.1112 9.85795 33.7333 9.5 33.2759 9.5C32.8185 9.5 32.4407 9.85795 32.4407 10.2955C32.4407 10.733 32.8185 11.0909 33.2759 11.0909ZM37.4249 9.81818H36.2516V20H37.4249V9.81818ZM43.0256 20.1591C44.5767 20.1591 45.7102 19.3835 46.0682 18.2301L44.9347 17.9119C44.6364 18.7074 43.9453 19.1051 43.0256 19.1051C41.6484 19.1051 40.6989 18.2152 40.6442 16.5795H46.1875V16.0824C46.1875 13.2386 44.4972 12.2642 42.9062 12.2642C40.8381 12.2642 39.4659 13.8949 39.4659 16.2415C39.4659 18.5881 40.8182 20.1591 43.0256 20.1591ZM40.6442 15.5653C40.7237 14.3771 41.5639 13.3182 42.9062 13.3182C44.179 13.3182 44.9943 14.2727 44.9943 15.5653H40.6442ZM51.1058 20.1591C52.5774 20.1591 53.0746 19.2443 53.3331 18.8267H53.4723V20H54.6058V9.81818H53.4325V13.5767H53.3331C53.0746 13.179 52.6172 12.2642 51.1257 12.2642C49.1967 12.2642 47.8643 13.7955 47.8643 16.2017C47.8643 18.6278 49.1967 20.1591 51.1058 20.1591ZM51.2649 19.1051C49.7933 19.1051 49.0376 17.8125 49.0376 16.1818C49.0376 14.571 49.7734 13.3182 51.2649 13.3182C52.6967 13.3182 53.4524 14.4716 53.4524 16.1818C53.4524 17.9119 52.6768 19.1051 51.2649 19.1051Z" fill="#CA2C2C"/>
<rect x="0.5" y="0.5" width="70" height="29" rx="14.5" stroke="#CA2C2C"/>
</svg>
