<svg width="16" height="17" viewBox="0 0 16 17" fill="none" xmlns="http://www.w3.org/2000/svg">
<g clip-path="url(#clip0_186:575)">
<path d="M9.83595 11.4929L9.83597 11.494M9.83595 11.4929L9.83597 11.494M9.83595 11.4929L9.83774 11.4885L9.89876 11.338C9.87835 11.3297 9.85651 11.3256 9.83443 11.3258C9.81154 11.326 9.78956 11.3308 9.76963 11.3393L9.83045 11.4812L9.83571 11.4934M9.83595 11.4929L9.83571 11.4934M9.83597 11.494L9.83571 11.4934M9.83597 11.494L9.83533 11.4944M9.83571 11.4934L9.83554 11.4939L9.83533 11.4944M9.83533 11.4944L9.83493 11.4954M9.83533 11.4944L9.96666 11.7989L9.83598 11.4959L9.83575 11.4954M9.83533 11.4944L9.83551 11.4948L9.83493 11.4954M9.83533 11.4944L9.83573 11.4953M9.83493 11.4954L9.60204 11.7292L9.83438 11.4967M9.83493 11.4954L9.83438 11.4967M9.83438 11.4967L9.71083 11.8014L9.8357 11.4954M9.83438 11.4967L9.8357 11.4954M9.8357 11.4954L9.83575 11.4954M9.8357 11.4954L9.83573 11.4953M9.83575 11.4954L9.83573 11.4953M9.83575 11.4954L9.83598 11.4951L9.83573 11.4953M5.5792 7.23068L5.57959 7.23028C5.57946 7.23041 5.57933 7.23055 5.5792 7.23068ZM5.5792 7.23068L5.57849 7.23139L5.57848 7.23139C5.57872 7.23115 5.57896 7.23092 5.5792 7.23068ZM7.64733 8.12513L8.50089 8.97869V8.97731L8.82663 9.3033L10.307 10.7847L9.83573 11.2559L8.35431 9.77561L8.00088 9.42246L7.64746 9.77562L6.16604 11.2559L5.6948 10.7847L7.17514 9.3033L7.52832 8.94987L7.17514 8.59644L5.69481 7.11506L6.16603 6.64383L7.64733 8.12513ZM8.82663 8.59645L8.50089 8.92243V7.97765L9.83569 6.6438L10.307 7.11503L8.82663 8.59645ZM6.04611 11.3758C6.04618 11.3757 6.04625 11.3756 6.04632 11.3756L6.04611 11.3758Z" stroke="#DD2B0E"/>
<path fill-rule="evenodd" clip-rule="evenodd" d="M1 8.94995C1 12.8159 4.13401 15.95 8 15.95C11.866 15.95 15 12.8159 15 8.94995C15 5.08396 11.866 1.94995 8 1.94995C4.13401 1.94995 1 5.08396 1 8.94995ZM8 0.949951C3.58172 0.949951 0 4.53167 0 8.94995C0 13.3682 3.58172 16.95 8 16.95C12.4183 16.95 16 13.3682 16 8.94995C16 4.53167 12.4183 0.949951 8 0.949951Z" fill="#DD2B0E"/>
</g>
<defs>
<clipPath id="clip0_186:575">
<rect width="16" height="16" fill="white" transform="translate(0 0.949951)"/>
</clipPath>
</defs>
</svg>
