<svg width="16" height="17" viewBox="0 0 16 17" fill="none" xmlns="http://www.w3.org/2000/svg">
<g clip-path="url(#clip0_186:566)">
<path d="M6.82029 10.1001L7.17384 10.4537L7.5274 10.1001L10.4738 7.15368L10.945 7.62487L7.52203 11.0479L7.522 11.0479L7.22248 11.3474C7.20914 11.3598 7.19159 11.3666 7.17347 11.3665L7.17314 11.3665C7.15466 11.3663 7.1367 11.3589 7.12331 11.3455L7.12273 11.3449L5.05231 9.27559L5.52365 8.80349L6.82029 10.1001ZM4.93949 9.16284C4.93962 9.16296 4.93975 9.16309 4.93987 9.16321L4.93949 9.16284ZM5.41009 8.68992C5.4095 8.68934 5.40894 8.68876 5.40836 8.68817L5.40835 8.68818L5.41009 8.68992Z" stroke="#09825D"/>
<rect x="0.5" y="1.44995" width="15" height="15" rx="7.5" stroke="#09825D"/>
</g>
<defs>
<clipPath id="clip0_186:566">
<rect width="16" height="16" fill="white" transform="translate(0 0.949951)"/>
</clipPath>
</defs>
</svg>
