<svg width="16" height="17" viewBox="0 0 16 17" fill="none" xmlns="http://www.w3.org/2000/svg">
<g clip-path="url(#clip0_186:560)">
<path d="M15.5 8.94995C15.5 13.0921 12.1421 16.45 8 16.45C3.85786 16.45 0.5 13.0921 0.5 8.94995C0.5 4.80782 3.85786 1.44995 8 1.44995C12.1421 1.44995 15.5 4.80782 15.5 8.94995Z" stroke="#5469D4"/>
<path d="M7.90277 12.5184C6.93057 12.5184 5.99818 12.1322 5.31072 11.4448C4.62327 10.7573 4.23706 9.82493 4.23706 8.85273C4.23706 7.88052 4.62327 6.94813 5.31072 6.26067C5.99818 5.57322 6.93057 5.18701 7.90277 5.18701C8.87498 5.18701 9.80737 5.57322 10.4948 6.26067C11.1823 6.94813 11.5685 7.88052 11.5685 8.85273C11.5685 9.82493 11.1823 10.7573 10.4948 11.4448C9.80737 12.1322 8.87498 12.5184 7.90277 12.5184ZM7.90277 12.3276C8.82436 12.3276 9.70821 11.9615 10.3599 11.3098C11.0115 10.6582 11.3776 9.77432 11.3776 8.85273C11.3776 7.93114 11.0115 7.04729 10.3599 6.39563C9.70821 5.74397 8.82436 5.37787 7.90277 5.37787C6.98119 5.37787 6.09734 5.74397 5.44568 6.39563C4.79402 7.04729 4.42792 7.93114 4.42792 8.85273C4.42792 9.77432 4.79402 10.6582 5.44568 11.3098C6.09734 11.9615 6.98119 12.3276 7.90277 12.3276Z" fill="#5469D4" stroke="#5469D4"/>
<path d="M7.86509 6.97339H7.93937C7.97125 6.97339 7.99709 6.99923 7.99709 7.0311V8.89053C7.99709 8.92241 7.97125 8.94825 7.93937 8.94825H7.86509C7.83321 8.94825 7.80737 8.92241 7.80737 8.89053V7.0311C7.80737 6.99923 7.83321 6.97339 7.86509 6.97339Z" stroke="#5469D4"/>
<path d="M7.86509 8.75732H9.13023C9.16211 8.75732 9.18794 8.78316 9.18794 8.81504V8.88932C9.18794 8.9212 9.16211 8.94704 9.13023 8.94704H7.86509C7.83321 8.94704 7.80737 8.9212 7.80737 8.88932V8.81504C7.80737 8.78316 7.83321 8.75732 7.86509 8.75732Z" stroke="#5469D4"/>
</g>
<defs>
<clipPath id="clip0_186:560">
<rect width="16" height="16" fill="white" transform="translate(0 0.949951)"/>
</clipPath>
</defs>
</svg>
