<svg width="87" height="30" viewBox="0 0 87 30" fill="none" xmlns="http://www.w3.org/2000/svg">
<rect x="0.5" y="0.5" width="86" height="29" rx="14.5" fill="#109B67" fill-opacity="0.15"/>
<path d="M21.8011 12.3636H22.9943C22.9396 10.8274 21.5227 9.67898 19.554 9.67898C17.6051 9.67898 16.0739 10.8125 16.0739 12.5227C16.0739 13.8949 17.0682 14.7102 18.6591 15.1676L19.9119 15.5256C20.9858 15.8239 21.9403 16.2017 21.9403 17.2159C21.9403 18.3295 20.8665 19.0653 19.4545 19.0653C18.2415 19.0653 17.1676 18.5284 17.0682 17.375H15.7955C15.9148 19.0455 17.267 20.179 19.4545 20.179C21.8011 20.179 23.1335 18.8864 23.1335 17.2358C23.1335 15.3267 21.3239 14.7102 20.2699 14.4318L19.2358 14.1534C18.4801 13.9545 17.267 13.5568 17.267 12.4631C17.267 11.4886 18.1619 10.7727 19.5142 10.7727C20.7472 10.7727 21.6818 11.3594 21.8011 12.3636ZM30.0641 16.8778C30.0641 18.3097 28.9703 18.9659 28.0953 18.9659C27.1209 18.9659 26.4249 18.25 26.4249 17.1364V12.3636H25.2516V17.2159C25.2516 19.1648 26.2857 20.0994 27.7175 20.0994C28.8709 20.0994 29.6266 19.483 29.9846 18.7074H30.0641V20H31.2374V12.3636H30.0641V16.8778ZM36.7386 20.1591C38.429 20.1591 39.5426 19.125 39.7415 17.7727H38.5682C38.3494 18.608 37.6534 19.1051 36.7386 19.1051C35.3466 19.1051 34.4517 17.9517 34.4517 16.1818C34.4517 14.4517 35.3665 13.3182 36.7386 13.3182C37.7727 13.3182 38.3892 13.9545 38.5682 14.6506H39.7415C39.5426 13.2188 38.3295 12.2642 36.7188 12.2642C34.6506 12.2642 33.2784 13.8949 33.2784 16.2216C33.2784 18.5085 34.5909 20.1591 36.7386 20.1591ZM44.8089 20.1591C46.4993 20.1591 47.6129 19.125 47.8118 17.7727H46.6385C46.4197 18.608 45.7237 19.1051 44.8089 19.1051C43.4169 19.1051 42.522 17.9517 42.522 16.1818C42.522 14.4517 43.4368 13.3182 44.8089 13.3182C45.843 13.3182 46.4595 13.9545 46.6385 14.6506H47.8118C47.6129 13.2188 46.3999 12.2642 44.7891 12.2642C42.7209 12.2642 41.3487 13.8949 41.3487 16.2216C41.3487 18.5085 42.6612 20.1591 44.8089 20.1591ZM52.9787 20.1591C54.5298 20.1591 55.6634 19.3835 56.0213 18.2301L54.8878 17.9119C54.5895 18.7074 53.8984 19.1051 52.9787 19.1051C51.6016 19.1051 50.652 18.2152 50.5973 16.5795H56.1406V16.0824C56.1406 13.2386 54.4503 12.2642 52.8594 12.2642C50.7912 12.2642 49.419 13.8949 49.419 16.2415C49.419 18.5881 50.7713 20.1591 52.9787 20.1591ZM50.5973 15.5653C50.6768 14.3771 51.517 13.3182 52.8594 13.3182C54.1321 13.3182 54.9474 14.2727 54.9474 15.5653H50.5973ZM63.5845 14.0739C63.2166 12.9901 62.3913 12.2642 60.88 12.2642C59.2692 12.2642 58.076 13.179 58.076 14.4716C58.076 15.5256 58.7024 16.2315 60.1044 16.5597L61.3771 16.858C62.1477 17.0369 62.5107 17.4048 62.5107 17.9318C62.5107 18.5881 61.8146 19.125 60.7209 19.125C59.7614 19.125 59.1598 18.7124 58.951 17.892L57.8374 18.1705C58.1108 19.468 59.1797 20.1591 60.7408 20.1591C62.5156 20.1591 63.7237 19.1896 63.7237 17.8722C63.7237 16.8082 63.0575 16.1371 61.6953 15.804L60.5618 15.5256C59.657 15.3018 59.2493 14.9986 59.2493 14.4119C59.2493 13.7557 59.9453 13.2784 60.88 13.2784C61.9041 13.2784 62.3267 13.8452 62.5305 14.3722L63.5845 14.0739ZM71.149 14.0739C70.7811 12.9901 69.9558 12.2642 68.4444 12.2642C66.8336 12.2642 65.6404 13.179 65.6404 14.4716C65.6404 15.5256 66.2669 16.2315 67.6689 16.5597L68.9416 16.858C69.7122 17.0369 70.0751 17.4048 70.0751 17.9318C70.0751 18.5881 69.3791 19.125 68.2853 19.125C67.3258 19.125 66.7243 18.7124 66.5154 17.892L65.4018 18.1705C65.6752 19.468 66.7441 20.1591 68.3052 20.1591C70.0801 20.1591 71.2882 19.1896 71.2882 17.8722C71.2882 16.8082 70.622 16.1371 69.2598 15.804L68.1262 15.5256C67.2214 15.3018 66.8137 14.9986 66.8137 14.4119C66.8137 13.7557 67.5098 13.2784 68.4444 13.2784C69.4686 13.2784 69.8912 13.8452 70.095 14.3722L71.149 14.0739Z" fill="#109B67"/>
<rect x="0.5" y="0.5" width="86" height="29" rx="14.5" stroke="#109B67"/>
</svg>
